<?xml version="1.0" encoding="UTF-8"?>
<svg id="Layer_1" data-name="Layer 1" xmlns="http://www.w3.org/2000/svg" version="1.1" viewBox="0 0 24 24">
  <defs>
    <style>
      .cls-1 {
        fill: #000;
        stroke-width: 0px;
      }
    </style>
  </defs>
  <g id="Icon_feather-arrow-right" data-name="Icon feather-arrow-right">
    <path class="cls-1" d="M12,24c-.4,0-.8-.1-1.1-.4-.6-.6-.6-1.5,0-2.1l7.9-7.9H1.5c-.8,0-1.5-.7-1.5-1.5s.7-1.5,1.5-1.5h17.4l-7.9-7.9c-.6-.6-.6-1.5,0-2.1.6-.6,1.5-.6,2.1,0l10.5,10.5s0,0,0,0h0s0,0,0,0c.1.1.2.3.3.5,0,.2.1.4.1.6h0c0,.2,0,.4-.1.6,0,.2-.2.3-.3.5h0s0,0,0,0l-10.5,10.5c-.3.3-.7.4-1.1.4Z"/>
  </g>
</svg>