<?xml version="1.0" encoding="UTF-8"?>
<svg id="Layer_1" data-name="Layer 1" xmlns="http://www.w3.org/2000/svg" version="1.1" viewBox="0 0 47 38.5">
  <defs>
    <style>
      .cls-1 {
        fill: #000;
        stroke-width: 0px;
      }
    </style>
  </defs>
  <path class="cls-1" d="M6.4,38.5c-3.5,0-6.4-2.9-6.4-6.4V6.4s0,0,0,0C0,2.9,2.9,0,6.4,0h34.2c3.5,0,6.4,2.9,6.4,6.4h0v25.7c0,3.5-2.9,6.4-6.4,6.4H6.4ZM4.3,10.5v21.6c0,1.2,1,2.1,2.1,2.1h34.2c1.2,0,2.1-1,2.1-2.1V10.5l-18,12.6c-.7.5-1.7.5-2.5,0L4.3,10.5ZM4.5,5.5l19,13.3,19-13.3c-.4-.7-1.1-1.2-1.9-1.2H6.4c-.8,0-1.6.5-1.9,1.2Z"/>
</svg>